<?xml version="1.0" encoding="UTF-8" standalone="no"?>
<!-- Created with Inkscape (http://www.inkscape.org/) -->

<svg
   xmlns:dc="http://purl.org/dc/elements/1.1/"
   xmlns:cc="http://creativecommons.org/ns#"
   xmlns:rdf="http://www.w3.org/1999/02/22-rdf-syntax-ns#"
   xmlns:svg="http://www.w3.org/2000/svg"
   xmlns="http://www.w3.org/2000/svg"
   xmlns:sodipodi="http://sodipodi.sourceforge.net/DTD/sodipodi-0.dtd"
   xmlns:inkscape="http://www.inkscape.org/namespaces/inkscape"
   version="1.1"
   id="svg3888"
   width="600"
   height="444"
   viewBox="0 0 600 444"
   sodipodi:docname="minsky.svg"
   inkscape:version="0.92.4 (unknown)">
  <metadata
     id="metadata3894">
    <rdf:RDF>
      <cc:Work
         rdf:about="">
        <dc:format>image/svg+xml</dc:format>
        <dc:type
           rdf:resource="http://purl.org/dc/dcmitype/StillImage" />
        <dc:title />
      </cc:Work>
    </rdf:RDF>
  </metadata>
  <defs
     id="defs3892" />
  <sodipodi:namedview
     pagecolor="#ffffff"
     bordercolor="#666666"
     borderopacity="1"
     objecttolerance="10"
     gridtolerance="10"
     guidetolerance="10"
     inkscape:pageopacity="0"
     inkscape:pageshadow="2"
     inkscape:window-width="2560"
     inkscape:window-height="1417"
     id="namedview3890"
     showgrid="false"
     inkscape:zoom="1.9636546"
     inkscape:cx="281.41221"
     inkscape:cy="222"
     inkscape:window-x="0"
     inkscape:window-y="0"
     inkscape:window-maximized="1"
     inkscape:current-layer="svg3888" />
  <path
     inkscape:connector-curvature="0"
     id="path3938"
     d="M 199.62776,278.49229 C 193.5167,120.11413 444.06993,129.28072 470.04191,250.99255 573.92984,260.15913 573.42058,426.1761 459.85682,426.68536 346.29307,427.19461 227.63676,432.79641 168.56324,426.68536 109.48971,420.5743 77.915942,296.3162 184.85938,282.56633 222.03496,189.882 304.53419,131.82699 383.46865,156.78046 462.4031,181.73393 421.66273,111.45681 417.5887,82.429294 413.51466,53.401783 426.75528,-2.1069587 483.28253,5.5318593 539.80978,13.170677 553.0504,74.281224 529.62469,98.725438 506.19898,123.16966 426.24602,130.29923 420.13497,72.244204 414.02392,14.189186 497.54166,-9.2365227 518.93035,16.735457 540.31904,42.707438 564.254,115.53084 491.4306,133.86401 418.60721,152.19717 441.52366,178.16915 459.85682,242.33522 552.54115,242.84447 586.6612,415.99101 476.66222,421.59281 366.66325,427.19461 220.5072,439.92597 157.86889,430.75939 95.230585,421.59281 80.971472,283.07558 177.22057,270.34422 181.2946,218.40026 196.57224,206.17815 212.86838,194.46529 162.45218,132.8455 75.878922,139.46581 56.527252,209.74293 -9.6758385,219.41877 -23.934963,336.54731 97.776865,332.47327 109.48971,273.39974 154.81337,262.7054 186.8964,264.23316 186.8964,229.60386 195.04447,219.41877 207.26658,204.65038 168.05398,149.14164 84.026992,120.11413 60.601292,214.83548 -21.897943,227.05758 4.0740319,323.81594 103.88791,329.41774 132.40617,270.85347 171.10951,273.909 194.02596,274.41825 196.06298,149.6509 444.06993,124.69743 475.64371,243.86298 587.17045,256.08509 575.4576,418.02803 475.13446,420.06505 374.81132,422.10206 239.34962,431.7779 169.58175,423.62983 99.813875,415.48176 55.508747,277.47378 199.62776,278.49229 Z"
     style="fill:none;stroke:#000000;stroke-width:1px;stroke-linecap:butt;stroke-linejoin:miter;stroke-opacity:1"
     sodipodi:nodetypes="ccsscssssssscssccccccccccssc" />
</svg>
