<?xml version="1.0" encoding="UTF-8" standalone="no"?>
<!-- Created with Inkscape (http://www.inkscape.org/) -->

<svg
   xmlns:dc="http://purl.org/dc/elements/1.1/"
   xmlns:cc="http://creativecommons.org/ns#"
   xmlns:rdf="http://www.w3.org/1999/02/22-rdf-syntax-ns#"
   xmlns:svg="http://www.w3.org/2000/svg"
   xmlns="http://www.w3.org/2000/svg"
   xmlns:sodipodi="http://sodipodi.sourceforge.net/DTD/sodipodi-0.dtd"
   xmlns:inkscape="http://www.inkscape.org/namespaces/inkscape"
   id="svg4011"
   version="1.1"
   inkscape:version="0.91 r13725"
   width="720"
   height="883.125"
   viewBox="0 0 720 883.125"
   sodipodi:docname="woman.svg">
  <metadata
     id="metadata4017">
    <rdf:RDF>
      <cc:Work
         rdf:about="">
        <dc:format>image/svg+xml</dc:format>
        <dc:type
           rdf:resource="http://purl.org/dc/dcmitype/StillImage" />
        <dc:title></dc:title>
      </cc:Work>
    </rdf:RDF>
  </metadata>
  <defs
     id="defs4015" />
  <sodipodi:namedview
     pagecolor="#ffffff"
     bordercolor="#666666"
     borderopacity="1"
     objecttolerance="10"
     gridtolerance="10"
     guidetolerance="10"
     inkscape:pageopacity="0"
     inkscape:pageshadow="2"
     inkscape:window-width="1420"
     inkscape:window-height="916"
     id="namedview4013"
     showgrid="false"
     inkscape:zoom="1.5116972"
     inkscape:cx="403.44418"
     inkscape:cy="716.67548"
     inkscape:window-x="99"
     inkscape:window-y="11"
     inkscape:window-maximized="0"
     inkscape:current-layer="svg4011" />
  <path
     style="fill:none;fill-rule:evenodd;stroke:#000000;stroke-width:1px;stroke-linecap:butt;stroke-linejoin:miter;stroke-opacity:1"
     d="M 349.34895,210.13745 C 414.83491,227.91221 425.12557,234.46081 433.54519,238.20286 441.96481,241.94492 475.64331,226.04118 477.51434,222.29913 479.38536,218.55707 494.35359,212.94399 500.90218,212.00848 507.45078,211.07296 544.87133,211.07296 551.41993,212.94399 557.96852,214.81502 608.48626,223.23464 630.93859,212.94399 653.39093,202.65334 673.97223,190.49166 660.87504,166.1683 647.77784,141.84495 650.58438,119.39261 654.32644,99.746828 658.06849,80.101038 656.19747,42.680488 662.74606,37.067398 669.29466,31.454318 604.74421,78.230008 594.45356,81.972058 584.16291,85.714118 567.32366,96.940278 557.96852,106.29542 548.61338,115.65056 515.8704,128.74775 528.03208,140.90943 540.19376,153.07111 626.26102,137.16738 639.35822,152.1356 652.45541,167.10382 645.90682,171.78139 650.58438,181.13652 655.26195,190.49166 617.8414,205.45988 588.84047,200.78231 559.83955,196.10474 512.12835,189.55615 486.86948,209.20194 445.70687,192.36269 441.0293,191.42717 441.0293,191.42717 415.77043,188.62063 434.4807,218.55707 434.4807,183.00755 434.4807,147.45803 378.34988,146.52251 362.44614,174.58793 320.34802,160.55522 303.50878,193.2982 241.76487,183.00755 180.02096,172.7169 124.82565,169.91036 100.50229,155.87765 76.178933,141.84495 69.630333,104.42439 116.40602,91.327198 163.18171,78.230008 246.44244,58.584218 285.73401,78.230008 325.02559,97.875798 350.28446,104.42439 371.80128,96.940278 393.3181,89.456168 433.54519,95.069258 446.64238,84.778598 459.73958,74.487948 428.86762,69.810378 454.12649,84.778598 479.38536,99.746828 526.16105,103.48888 558.90404,85.714118 591.64701,67.939358 615.97037,54.842158 631.87411,41.744968 647.77784,28.647778 636.55168,19.292638 594.45356,34.260858 552.35544,49.229078 492.48256,95.069258 480.32088,112.84402 468.1592,130.61878 423.25454,137.16738 412.02837,118.4571 400.80221,99.746828 404.54426,65.132818 434.4807,65.132818 464.41714,65.132818 499.03115,121.26364 553.29095,119.39261 607.55075,117.52159 681.45634,138.10289 661.81055,168.03933 642.16476,197.97577 618.77691,183.94306 609.42178,171.78139 600.06664,159.61971 556.09749,206.3954 547.67787,185.81409 539.25825,165.23279 554.22647,155.87765 564.51712,160.55522 574.80777,165.23279 591.64701,206.3954 586.96945,225.10567 582.29188,243.81595 588.84047,241.0094 569.19469,261.59071 549.5489,282.17201 537.38722,312.10845 517.74143,324.27013 498.09564,336.43181 463.48163,325.20564 461.6106,288.72061 459.73958,252.23557 494.35359,238.20286 507.45078,229.78324 520.54797,221.36362 521.48348,202.65334 538.32273,200.78231 555.16198,198.91129 557.96852,215.75053 557.03301,232.58978 556.09749,249.42903 482.19191,287.78509 470.03023,315.85051 457.86855,343.91592 494.35359,353.27106 500.90218,319.59256 507.45078,285.91407 527.09657,257.84865 523.35451,237.26735 519.61246,216.68605 469.09471,213.87951 441.96481,224.17016 414.83491,234.46081 397.06015,218.55707 393.3181,205.45988 389.57604,192.36269 385.83399,155.87765 425.12557,151.20008 419.51248,137.16738 374.60782,139.0384 357.76857,141.84495 340.92933,144.65149 314.73494,155.87765 303.50878,149.32906 292.28261,142.78046 318.477,140.90943 308.18634,151.20008 297.89569,161.49073 272.63682,90.391688 249.24898,111.9085 225.86113,133.42532 180.95647,159.61971 223.05459,189.55615 265.15271,219.49259 280.12093,214.81502 281.99196,221.36362 283.86299,227.91221 252.05552,255.04211 205.27983,232.58978 158.50414,210.13745 137.92284,221.36362 117.34153,212.94399 96.760233,204.52437 48.113523,223.23464 102.37331,242.88043 156.63311,262.52622 235.21627,288.72061 282.92747,255.97763 330.63868,223.23464 349.34895,210.13745 349.34895,210.13745 Z"
     id="path4292"
     inkscape:connector-curvature="0" />
</svg>
